<svg width="76" height="76" viewBox="0 0 76 76" fill="none" xmlns="http://www.w3.org/2000/svg">
<g clip-path="url(#clip0_37_279)">
<rect width="76" height="76" fill="white"/>
<rect width="76" height="76" fill="#20182A"/>
<path fill-rule="evenodd" clip-rule="evenodd" d="M41.1668 15.7639C41.1668 15.7639 41.1668 15.7639 41.1668 15.7639C41.1668 20.1362 44.7112 23.6806 49.0834 23.6806C53.4556 23.6806 57 20.1362 57 15.7639C57 15.7639 57 15.7639 57 15.7639L41.1668 15.7639Z" fill="#FFCA7B"/>
<path fill-rule="evenodd" clip-rule="evenodd" d="M34.8332 59.5691C34.8332 59.5691 34.8332 59.5691 34.8332 59.5691C34.8332 55.1968 31.2888 51.6524 26.9166 51.6524C22.5444 51.6524 19 55.1968 19 59.5691C19 59.5691 19 59.5691 19 59.5691L34.8332 59.5691Z" fill="#FFCA7B"/>
<path fill-rule="evenodd" clip-rule="evenodd" d="M41.166 59.569C41.166 59.569 41.1661 59.569 41.1661 59.569C49.9105 59.569 56.9993 52.4803 56.9993 43.7358C56.9993 34.9914 49.9105 27.9026 41.1661 27.9026C41.1661 27.9026 41.166 27.9026 41.166 27.9026L41.166 59.569Z" fill="#B072FF"/>
<path fill-rule="evenodd" clip-rule="evenodd" d="M34.834 15.764C34.834 15.764 34.8339 15.764 34.8339 15.764C26.0895 15.764 19.0007 22.8527 19.0007 31.5972C19.0007 40.3416 26.0895 47.4304 34.8339 47.4304C34.8339 47.4304 34.834 47.4304 34.834 47.4304L34.834 15.764Z" fill="#B072FF"/>
</g>
<defs>
<clipPath id="clip0_37_279">
<rect width="76" height="76" rx="19" fill="white"/>
</clipPath>
</defs>
</svg>
