<svg width="26" height="46" viewBox="0 0 26 46" fill="none" xmlns="http://www.w3.org/2000/svg">
<path fill-rule="evenodd" clip-rule="evenodd" d="M17.5673 8.15082C17.8249 8.49503 18.2992 8.5923 18.6716 8.37731L22.1193 6.38681C22.324 6.26861 22.4702 6.07042 22.5227 5.83991C22.5751 5.6094 22.5291 5.36746 22.3958 5.17228C18.9217 0.0890357 12.0628 -1.53445 6.64288 1.59475C0.956825 4.8776 -0.991363 12.1483 2.29148 17.8344L10.7831 32.5423C12.5068 35.5279 15.3304 37.4825 18.4445 38.1909C18.0849 38.5387 17.6771 38.8487 17.2233 39.1107C14.4644 40.7035 10.9921 39.9452 9.12947 37.4572C8.87178 37.113 8.39748 37.0158 8.02511 37.2307L4.57747 39.2212C4.37274 39.3394 4.22655 39.5376 4.17407 39.7681C4.1216 39.9986 4.16759 40.2406 4.30098 40.4358C7.77506 45.519 14.6339 47.1425 20.0539 44.0133C25.7399 40.7305 27.6881 33.4597 24.4052 27.7737L15.9136 13.0658C14.1899 10.0802 11.3663 8.1256 8.25227 7.41716C8.61182 7.06934 9.01967 6.75935 9.47342 6.49738C12.2323 4.90454 15.7047 5.66282 17.5673 8.15082ZM13.8446 34.9407C12.941 34.157 12.1503 33.2119 11.5186 32.1178L3.02701 17.4099C-0.0213448 12.13 1.78769 5.3786 7.0676 2.33024C10.8017 0.174337 15.2719 0.447996 18.6475 2.66075C15.2718 0.447913 10.8016 0.174214 7.06746 2.33014C1.78755 5.3785 -0.0214792 12.1299 3.02688 17.4098L11.5185 32.1177C12.1502 33.2119 12.9409 34.157 13.8446 34.9407ZM18.2471 7.64189C17.8501 7.11163 17.3888 6.65049 16.8807 6.26312C17.3888 6.6505 17.8501 7.11165 18.247 7.64192L18.2471 7.64189ZM6.66164 8.01938C6.66163 8.0194 6.66161 8.01943 6.66159 8.01945C8.36415 8.18254 10.0163 8.73892 11.4757 9.65047C10.2877 8.90841 8.97196 8.4017 7.60527 8.15092C7.29308 8.09364 6.97823 8.04971 6.66164 8.01938ZM6.88437 42.0678C6.18166 41.4596 5.54707 40.754 5.00218 39.9567L8.44978 37.9663C8.44975 37.9662 8.44972 37.9662 8.44969 37.9661L5.00205 39.9566C5.16403 40.1936 5.33393 40.4226 5.5112 40.6432C5.93028 41.1648 6.39051 41.6404 6.88437 42.0678ZM10.3391 39.7076C12.489 41.0584 15.2962 41.204 17.648 39.8462C18.6441 39.2711 19.4474 38.4905 20.0354 37.5888C20.0353 37.5888 20.0353 37.5888 20.0352 37.5888C19.8568 37.8623 19.6586 38.1247 19.4413 38.3736C18.9421 38.9451 18.3417 39.4455 17.6479 39.8461C15.2961 41.2039 12.4889 41.0583 10.3391 39.7076ZM7.19411 15.0039C6.79506 14.3127 6.54384 13.578 6.43005 12.8355C8.28384 13.0806 10.005 14.1539 11.011 15.8963L19.5026 30.6042C19.9017 31.2954 20.1529 32.03 20.2667 32.7726C18.4129 32.5275 16.6917 31.4542 15.6857 29.7117L7.19411 15.0039ZM17.9881 32.9647C18.9816 33.4459 20.079 33.691 21.1873 33.675C21.1812 32.4863 20.8751 31.2829 20.2382 30.1797L11.7465 15.4718C11.263 14.6344 10.6342 13.9331 9.91024 13.3815C10.6341 13.9331 11.2629 14.6343 11.7464 15.4717L20.238 30.1796C20.7235 31.0206 21.0168 31.9198 21.1315 32.8263C21.1618 33.0652 21.1796 33.3046 21.1853 33.5436C21.1863 33.5874 21.1869 33.6312 21.1872 33.6749C21.1433 33.6756 21.0995 33.6758 21.0556 33.6756C20.8153 33.6746 20.5756 33.6613 20.3376 33.6361C19.5225 33.5496 18.7266 33.3224 17.9881 32.9647Z" fill="#FF5BFF"/>
</svg>
