<svg width="194" height="227" viewBox="0 0 230 260" fill="none" xmlns="http://www.w3.org/2000/svg">
<path fill-rule="evenodd" clip-rule="evenodd" d="M115.829 226.355C115.83 226.355 115.83 226.355 115.831 226.355C158.731 226.355 193.508 191.577 193.508 148.677C193.508 105.777 158.731 71 115.831 71C115.83 71 115.83 71 115.829 71L115.829 226.355Z" fill="#5BF5FF"/>
<path fill-rule="evenodd" clip-rule="evenodd" d="M115.83 2.71222e-05C115.83 21.45 133.219 38.8387 154.669 38.8387C176.119 38.8387 193.508 21.45 193.508 3.05176e-05C193.508 2.03451e-05 193.508 1.01725e-05 193.508 0L115.83 2.71222e-05Z" fill="#FF72D7"/>
<path fill-rule="evenodd" clip-rule="evenodd" d="M77.6784 225.669C77.6784 204.219 60.2897 186.831 38.8397 186.831C17.3896 186.831 0.000975625 204.219 0.000976562 225.669C0.000976562 225.669 0.000976563 225.669 0.000976563 225.669L77.6784 225.669Z" fill="#B072FF"/>
<path fill-rule="evenodd" clip-rule="evenodd" d="M77.6787 0.58963C77.6782 0.58963 77.6777 0.58963 77.6771 0.58963C34.7771 0.589626 -0.000233599 35.367 -0.00023735 78.267C-0.0002411 121.167 34.7771 155.944 77.6771 155.944C77.6776 155.944 77.6782 155.944 77.6787 155.944L77.6787 0.58963Z" fill="#FFCA7B"/>
</svg>
